<svg width="88" height="57" viewBox="0 0 88 57" fill="none" xmlns="http://www.w3.org/2000/svg">
<path fill-rule="evenodd" clip-rule="evenodd" d="M0 28.5C0 27.6603 0.3311 26.8549 0.920463 26.2611C1.50983 25.6674 2.30917 25.3338 3.14266 25.3338H77.2654L57.4855 5.41191C56.8954 4.81738 56.5639 4.01102 56.5639 3.17022C56.5639 2.32943 56.8954 1.52307 57.4855 0.928536C58.0756 0.334004 58.8759 1.98098e-08 59.7105 0C60.545 -1.98098e-08 61.3454 0.334004 61.9355 0.928536L87.0767 26.2583C87.3694 26.5524 87.6016 26.9018 87.76 27.2865C87.9184 27.6712 88 28.0835 88 28.5C88 28.9165 87.9184 29.3288 87.76 29.7135C87.6016 30.0982 87.3694 30.4476 87.0767 30.7417L61.9355 56.0715C61.3454 56.666 60.545 57 59.7105 57C58.8759 57 58.0756 56.666 57.4855 56.0715C56.8954 55.4769 56.5639 54.6706 56.5639 53.8298C56.5639 52.989 56.8954 52.1826 57.4855 51.5881L77.2654 31.6662H3.14266C2.30917 31.6662 1.50983 31.3326 0.920463 30.7389C0.3311 30.1451 0 29.3397 0 28.5Z" fill="white"/>
</svg>
