<svg width="427" height="467" viewBox="0 0 427 467" fill="none" xmlns="http://www.w3.org/2000/svg">
<g clip-path="url(#clip0_344_5)">
<path d="M352.275 299.25H74.725C68.8538 299.25 64.05 304.059 64.05 309.938V331.312C64.05 337.191 68.8538 342 74.725 342H352.275C358.146 342 362.95 337.191 362.95 331.312V309.938C362.95 304.059 358.146 299.25 352.275 299.25ZM394.975 85.5C377.295 85.5 362.95 99.8613 362.95 117.562C362.95 122.305 364.018 126.714 365.886 130.788L317.581 159.778C307.307 165.923 294.03 162.45 288.092 152.03L233.716 56.7773C240.855 50.8992 245.525 42.082 245.525 32.0625C245.525 14.3613 231.18 0 213.5 0C195.82 0 181.475 14.3613 181.475 32.0625C181.475 42.082 186.145 50.8992 193.284 56.7773L138.908 152.03C132.97 162.45 119.627 165.923 109.419 159.778L61.1811 130.788C62.9825 126.78 64.1167 122.305 64.1167 117.562C64.1167 99.8613 49.7722 85.5 32.0917 85.5C14.4112 85.5 0 99.8613 0 117.562C0 135.264 14.3445 149.625 32.025 149.625C33.7597 149.625 35.4944 149.358 37.1623 149.091L85.4 277.875H341.6L389.838 149.091C391.506 149.358 393.24 149.625 394.975 149.625C412.655 149.625 427 135.264 427 117.562C427 99.8613 412.655 85.5 394.975 85.5Z" fill="#A6A6A6"/>
</g>
<path d="M126.76 400.472C132.563 401.155 136.701 403.117 139.176 406.36C141.651 409.517 142.888 413.357 142.888 417.88C142.888 420.696 142.461 423.384 141.608 425.944C140.755 428.419 139.731 430.552 138.536 432.344C137.341 434.051 136.317 435.16 135.464 435.672C132.051 437.891 121.64 439 104.232 439H79.4V366.04H109.48C116.307 366.04 121.811 366.424 125.992 367.192C130.259 367.875 133.715 369.496 136.36 372.056C139.005 374.531 140.328 378.328 140.328 383.448C140.328 387.885 139.219 391.469 137 394.2C134.867 396.931 131.453 398.808 126.76 399.832V400.472ZM116.52 381.528C115.667 380.675 114.643 380.163 113.448 379.992C112.339 379.736 110.547 379.608 108.072 379.608C105.597 379.608 103.72 379.651 102.44 379.736V395.352H103.72C104.147 395.352 105.939 395.352 109.096 395.352C112.253 395.352 114.344 395.139 115.368 394.712C116.136 394.371 116.819 393.475 117.416 392.024C118.099 390.573 118.44 388.995 118.44 387.288C118.44 384.728 117.8 382.808 116.52 381.528ZM118.696 424.28C119.293 423.768 119.763 422.829 120.104 421.464C120.531 420.013 120.744 418.563 120.744 417.112C120.744 415.32 120.488 413.656 119.976 412.12C119.549 410.499 118.952 409.347 118.184 408.664C117.416 407.896 116.307 407.384 114.856 407.128C113.491 406.872 111.144 406.744 107.816 406.744C105.683 406.744 103.891 406.787 102.44 406.872V425.432C106.451 425.517 110.035 425.475 113.192 425.304C116.349 425.048 118.184 424.707 118.696 424.28ZM193.265 423H172.017L168.177 439H144.625L168.177 366.04H198.257L220.785 439H197.105L193.265 423ZM182.513 381.784L174.961 408.792H190.193L183.025 381.784H182.513ZM248.142 385.752C248.142 387.544 249.038 388.952 250.83 389.976C252.707 391 255.609 392.109 259.534 393.304C264.227 394.84 268.067 396.333 271.054 397.784C274.126 399.235 276.771 401.496 278.99 404.568C281.294 407.64 282.446 411.651 282.446 416.6C282.446 432.472 272.121 440.408 251.47 440.408C248.057 440.408 243.875 440.109 238.926 439.512C234.062 438.915 229.625 438.147 225.614 437.208C225.785 435.416 226.126 432.813 226.638 429.4C227.235 425.901 227.79 423.299 228.302 421.592C231.289 422.019 235.769 422.531 241.742 423.128C247.801 423.725 252.366 424.024 255.438 424.024C257.23 424.024 258.297 423.896 258.638 423.64C259.15 423.299 259.534 422.744 259.79 421.976C260.131 421.123 260.302 420.397 260.302 419.8C260.302 418.093 259.491 416.813 257.87 415.96C256.249 415.021 253.475 413.912 249.55 412.632C244.857 411.181 240.974 409.688 237.902 408.152C234.83 406.616 232.142 404.227 229.838 400.984C227.534 397.741 226.382 393.475 226.382 388.184C226.382 384.429 227.235 380.76 228.942 377.176C230.649 373.507 232.398 371.032 234.19 369.752C235.555 368.813 238.371 367.917 242.638 367.064C246.905 366.211 250.915 365.784 254.67 365.784C264.227 365.784 272.035 366.68 278.094 368.472C278.009 370.179 277.71 372.525 277.198 375.512C276.771 378.499 276.302 381.229 275.79 383.704L272.846 383.576C261.753 382.808 254.67 382.424 251.598 382.424C250.318 382.424 249.593 382.467 249.422 382.552C249.081 382.723 248.782 383.107 248.526 383.704C248.27 384.301 248.142 384.984 248.142 385.752ZM292.385 366.04H345.505V381.4H315.425V394.712H340.769V408.536H315.425V423.384H345.377V439H292.385V366.04Z" fill="#A6A6A6"/>
<defs>
<clipPath id="clip0_344_5">
<rect width="427" height="342" fill="white"/>
</clipPath>
</defs>
</svg>
