<svg width="186" height="49" viewBox="0 0 186 49" fill="none" xmlns="http://www.w3.org/2000/svg">
<mask id="mask0_35294_21649" style="mask-type:luminance" maskUnits="userSpaceOnUse" x="147" y="0" width="39" height="41">
<path d="M186 0H147.018V40.0958H186V0Z" fill="white"/>
</mask>
<g mask="url(#mask0_35294_21649)">
<path d="M174.839 3.15597L173.17 6.30413L170.354 7.89386C168.801 8.76313 167.422 9.54624 167.285 9.61673L167.042 9.75769L170.103 11.4805L173.164 13.2034L174.839 16.3516L176.513 19.4997L176.65 19.2491C176.735 19.1082 177.487 17.6907 178.333 16.0931L179.871 13.2034L182.939 11.4805L186.008 9.75769L185.756 9.61673C185.619 9.54624 184.241 8.76313 182.688 7.89386L179.871 6.30413L178.386 3.51621C177.572 1.9813 176.818 0.563847 176.711 0.368067L176.513 0L174.839 3.15597Z" fill="white"/>
<path d="M154.015 12.8511C152.842 12.9529 151.518 13.4306 150.467 14.1511C149.789 14.6053 148.807 15.6233 148.342 16.336C147.825 17.1348 147.512 17.8474 147.254 18.795L147.056 19.5388L147.034 29.8135L147.018 40.0958H149.606H152.195V36.0236V31.9514H154.784H157.373V36.0236V40.0958H159.923H162.474L162.458 29.7352L162.436 19.3822L162.261 18.7557C162.002 17.8239 161.347 16.5004 160.776 15.78C159.124 13.6812 156.694 12.6318 154.015 12.8511ZM155.842 18.3721C156.39 18.6227 156.931 19.2179 157.159 19.7973C157.327 20.228 157.335 20.3298 157.357 23.431L157.38 26.6261H154.784H152.188L152.21 23.3134L152.234 20.0087L152.416 19.6562C152.698 19.108 152.881 18.889 153.292 18.5992C154.06 18.0589 155.005 17.9727 155.842 18.3721Z" fill="white"/>
<path d="M164.812 14.1511C164.78 14.1746 164.758 20.0245 164.758 27.1508V40.0959H167.347H169.935V27.096V14.0962H167.4C165.999 14.0962 164.834 14.1197 164.812 14.1511Z" fill="white"/>
</g>
<path fill-rule="evenodd" clip-rule="evenodd" d="M20.8988 17.146C26.4072 19.479 30.1776 24.4453 30.1776 30.1788C30.1776 35.9147 26.4059 40.881 20.8975 43.2116C15.3903 40.881 11.6174 35.9147 11.6174 30.1788C11.6174 24.4442 15.3903 19.4778 20.8988 17.146Z" fill="#002ED9"/>
<path fill-rule="evenodd" clip-rule="evenodd" d="M20.9054 17.148C22.8143 16.1342 24.9918 15.5928 27.2949 15.5928C35.3003 15.5928 41.7991 22.1296 41.7991 30.1821C41.7991 38.2333 35.3003 44.7702 27.2949 44.7702C24.9918 44.7702 22.8143 44.2299 20.9042 43.2149C25.7183 40.8831 29.0166 35.9167 29.0166 30.1821C29.0166 24.4474 25.7196 19.481 20.9054 17.148Z" fill="#0099FA"/>
<path fill-rule="evenodd" clip-rule="evenodd" d="M20.8949 43.2137C18.9848 44.2288 16.8062 44.7702 14.5042 44.7702H5.94421L2.09146 48.6455C1.74153 48.9975 1.21489 49.1027 0.756835 48.9122C0.298782 48.7215 0 48.2725 0 47.7731V17.4755C0 16.4359 0.838214 15.5928 1.87174 15.5928H14.5508C16.8375 15.5998 18.9998 16.1412 20.896 17.148C16.0806 19.4798 12.7824 24.4463 12.7824 30.1809C12.7824 35.9168 16.0806 40.8831 20.8949 43.2137Z" fill="#1A4DDE"/>
<path fill-rule="evenodd" clip-rule="evenodd" d="M122.703 40.0905C118.519 40.0085 115.151 36.6157 115.151 32.4211C115.151 28.2253 118.531 24.8192 122.703 24.8192C126.874 24.8192 130.268 28.2253 130.268 32.4211C130.268 32.8455 130.231 33.2615 130.17 33.6678H118.884C119.371 35.4317 120.963 36.717 122.763 36.7616C124.454 36.7579 125.865 36.3504 126.983 35.3629L129.234 37.7056C129.112 37.8394 128.978 37.9673 128.845 38.0878C127.324 39.4804 125.22 40.0929 122.703 40.0905ZM142.722 38.7678L142.211 39.044C138.587 41.0599 133.746 40.2496 133.551 35.3629L133.515 34.4117V28.1229H131.131V25.1255H133.613L133.892 20.0229H137.103V25.1255H140.824V28.1229H137.103V34.6782H137.115C137.103 37.2257 139.121 36.9413 140.216 36.2419L142.722 38.7678ZM96.7731 38.9572C95.6421 39.6335 94.3285 40.023 92.9177 40.023C88.7461 40.023 85.3528 36.6157 85.3528 32.4211C85.3528 28.2253 88.7461 24.8192 92.9177 24.8192C94.3164 24.8192 95.6298 25.2039 96.761 25.8754C97.2231 26.1503 98.1353 26.8616 98.6947 27.8214L96.1894 30.2834C95.5326 28.9945 94.3406 28.1252 92.9177 28.1252C90.7893 28.1252 89.2324 30.0495 89.2324 32.4211C89.2324 34.7915 90.7893 36.717 92.9177 36.717C94.3406 36.717 95.5326 35.8476 96.1894 34.5576L98.6947 37.016C98.1353 37.9721 97.2231 38.6811 96.761 38.956L96.7731 38.9572ZM75.9879 24.8192C80.1595 24.8192 83.5407 28.2253 83.5407 32.4211C83.5407 36.6157 80.1595 40.023 75.9879 40.023C71.8163 40.023 68.423 36.6157 68.423 32.4211C68.423 28.2253 71.8163 24.8192 75.9879 24.8192ZM104.472 31.1744L106.503 28.6039L109.933 25.1098H114.895L108.06 32.1498L115.466 39.7866H110.504L105.578 34.7083L104.8 35.3377L104.788 39.7866H101.091V20.0229H104.788V27.0605L104.472 31.1744ZM59.1676 20.0229C63.3758 20.0229 66.7811 23.8317 66.7811 28.0613C66.7811 28.0613 66.7811 28.0649 66.7811 28.0674C66.7811 32.2957 63.3758 36.2757 59.1676 36.2757H56.3824V39.7866H52.1743V20.0229H59.1676ZM75.9879 28.1252C78.1041 28.1252 79.6245 30.0495 79.6245 32.4211C79.6245 34.7915 78.1041 36.717 75.9879 36.717C73.8595 36.717 72.2785 34.7915 72.2785 32.4211C72.2785 30.0495 73.8595 28.1252 75.9879 28.1252ZM62.6216 28.0625C62.6216 25.961 61.0649 23.8776 58.9852 23.8776H56.3824V32.4211H58.9852C61.0649 32.4211 62.6216 30.5607 62.6216 28.0662V28.0625ZM126.486 31.1744C125.999 29.4105 124.442 28.0674 122.703 28.0674C120.976 28.0674 119.371 29.4105 118.884 31.1744H126.486Z" fill="white"/>
</svg>
