<svg width="168" height="44" viewBox="0 0 168 44" fill="none" xmlns="http://www.w3.org/2000/svg">
<path d="M157.979 2.83359L156.481 5.66016L153.952 7.0875C152.558 7.86797 151.32 8.57109 151.197 8.63438L150.979 8.76094L153.727 10.3078L156.475 11.8547L157.979 14.6813L159.482 17.5078L159.605 17.2828C159.681 17.1562 160.357 15.8836 161.116 14.4492L162.497 11.8547L165.252 10.3078L168.007 8.76094L167.781 8.63438C167.658 8.57109 166.421 7.86797 165.026 7.0875L162.497 5.66016L161.164 3.15703C160.433 1.77891 159.756 0.50625 159.66 0.330469L159.482 0L157.979 2.83359Z" fill="black"/>
<path d="M139.282 11.5383C138.229 11.6297 137.04 12.0586 136.097 12.7055C135.488 13.1133 134.606 14.0273 134.189 14.6672C133.725 15.3844 133.444 16.0242 133.212 16.875L133.034 17.543L133.014 26.768L133 36H135.324H137.648V32.3437V28.6875H139.973H142.297V32.3437V36H144.587H146.877L146.863 26.6977L146.843 17.4023L146.686 16.8398C146.453 16.0031 145.865 14.8148 145.353 14.168C143.869 12.2836 141.688 11.3414 139.282 11.5383ZM140.923 16.4953C141.415 16.7203 141.9 17.2547 142.105 17.775C142.256 18.1617 142.263 18.2531 142.283 21.0375L142.304 23.9062H139.973H137.642L137.662 20.932L137.683 17.9648L137.847 17.6484C138.1 17.1562 138.264 16.9594 138.633 16.6992C139.323 16.2141 140.171 16.1367 140.923 16.4953Z" fill="black"/>
<path d="M148.976 12.7055C148.948 12.7266 148.928 17.9789 148.928 24.3773V36H151.252H153.576V24.3281V12.6562H151.3C150.042 12.6562 148.996 12.6773 148.976 12.7055Z" fill="black"/>
<path fill-rule="evenodd" clip-rule="evenodd" d="M18.764 15.3945C23.7097 17.4892 27.0949 21.9482 27.0949 27.096C27.0949 32.246 23.7085 36.705 18.7628 38.7975C13.8182 36.705 10.4307 32.246 10.4307 27.096C10.4307 21.9472 13.8182 17.4881 18.764 15.3945Z" fill="#002ED9"/>
<path fill-rule="evenodd" clip-rule="evenodd" d="M18.7699 15.3964C20.4838 14.4861 22.4389 14 24.5067 14C31.6944 14 37.5293 19.8691 37.5293 27.099C37.5293 34.3278 31.6944 40.1969 24.5067 40.1969C22.4389 40.1969 20.4838 39.7118 18.7688 38.8005C23.0912 36.7069 26.0525 32.2478 26.0525 27.099C26.0525 21.9501 23.0923 17.491 18.7699 15.3964Z" fill="#0099FA"/>
<path fill-rule="evenodd" clip-rule="evenodd" d="M18.7605 38.7994C17.0455 39.7108 15.0894 40.1969 13.0226 40.1969H5.33701L1.87782 43.6764C1.56363 43.9924 1.09079 44.0869 0.679524 43.9158C0.268261 43.7446 0 43.3415 0 42.8931V15.6904C0 14.757 0.75259 14 1.68054 14H13.0644C15.1175 14.0063 17.059 14.4924 18.7615 15.3964C14.438 17.49 11.4767 21.9491 11.4767 27.0979C11.4767 32.2479 14.438 36.7069 18.7605 38.7994Z" fill="#1A4DDE"/>
<path fill-rule="evenodd" clip-rule="evenodd" d="M110.169 35.9951C106.412 35.9215 103.388 32.8753 103.388 29.1092C103.388 25.342 106.423 22.2838 110.169 22.2838C113.914 22.2838 116.961 25.342 116.961 29.1092C116.961 29.4902 116.928 29.8637 116.873 30.2285H106.74C107.177 31.8122 108.607 32.9662 110.223 33.0063C111.741 33.003 113.008 32.6371 114.012 31.7505L116.033 33.8539C115.923 33.974 115.803 34.0888 115.683 34.197C114.318 35.4474 112.429 35.9973 110.169 35.9951ZM128.143 34.8076L127.684 35.0555C124.43 36.8655 120.084 36.138 119.909 31.7505L119.876 30.8964V25.25H117.736V22.5588H119.964L120.215 17.9775H123.098V22.5588H126.439V25.25H123.098V31.1357H123.109C123.098 33.423 124.91 33.1676 125.893 32.5397L128.143 34.8076ZM86.8877 34.9776C85.8722 35.5848 84.6928 35.9345 83.4261 35.9345C79.6806 35.9345 76.634 32.8753 76.634 29.1092C76.634 25.342 79.6806 22.2838 83.4261 22.2838C84.6819 22.2838 85.8612 22.6292 86.8768 23.2321C87.2917 23.4789 88.1107 24.1176 88.613 24.9793L86.3636 27.1898C85.7739 26.0326 84.7037 25.2521 83.4261 25.2521C81.5151 25.2521 80.1173 26.9798 80.1173 29.1092C80.1173 31.2374 81.5151 32.9662 83.4261 32.9662C84.7037 32.9662 85.7739 32.1857 86.3636 31.0274L88.613 33.2347C88.1107 34.0931 87.2917 34.7297 86.8768 34.9765L86.8877 34.9776ZM68.2257 22.2838C71.9712 22.2838 75.007 25.342 75.007 29.1092C75.007 32.8753 71.9712 35.9345 68.2257 35.9345C64.4802 35.9345 61.4336 32.8753 61.4336 29.1092C61.4336 25.342 64.4802 22.2838 68.2257 22.2838ZM93.7999 27.9898L95.6236 25.6819L98.7029 22.5447H103.158L97.0212 28.8656L103.671 35.7223H99.2161L94.7936 31.1627L94.0948 31.7278L94.0838 35.7223H90.7642V17.9775H94.0838V24.2962L93.7999 27.9898ZM53.1236 17.9775C56.9019 17.9775 59.9594 21.3972 59.9594 25.1947C59.9594 25.1947 59.9594 25.198 59.9594 25.2002C59.9594 28.9966 56.9019 32.57 53.1236 32.57H50.6229V35.7223H46.8447V17.9775H53.1236ZM68.2257 25.2521C70.1257 25.2521 71.4908 26.9798 71.4908 29.1092C71.4908 31.2374 70.1257 32.9662 68.2257 32.9662C66.3147 32.9662 64.8952 31.2374 64.8952 29.1092C64.8952 26.9798 66.3147 25.2521 68.2257 25.2521ZM56.2248 25.1958C56.2248 23.309 54.8271 21.4384 52.9598 21.4384H50.6229V29.1092H52.9598C54.8271 29.1092 56.2248 27.4388 56.2248 25.1991V25.1958ZM113.565 27.9898C113.128 26.4061 111.73 25.2002 110.169 25.2002C108.618 25.2002 107.177 26.4061 106.74 27.9898H113.565Z" fill="black"/>
</svg>
