<svg width="640" height="608" viewBox="0 0 640 608" fill="none" xmlns="http://www.w3.org/2000/svg">
<mask id="mask0_35306_18218" style="mask-type:luminance" maskUnits="userSpaceOnUse" x="0" y="0" width="640" height="512">
<path d="M640 0H0V512H640V0Z" fill="white"/>
</mask>
<g mask="url(#mask0_35306_18218)">
<path d="M528 448H112C103.2 448 96 455.2 96 464V496C96 504.8 103.2 512 112 512H528C536.8 512 544 504.8 544 496V464C544 455.2 536.8 448 528 448ZM592 128C565.5 128 544 149.5 544 176C544 183.1 545.6 189.7 548.4 195.8L476 239.2C460.6 248.4 440.7 243.2 431.8 227.6L350.3 85C361 76.2 368 63 368 48C368 21.5 346.5 0 320 0C293.5 0 272 21.5 272 48C272 63 279 76.2 289.7 85L208.2 227.6C199.3 243.2 179.3 248.4 164 239.2L91.7 195.8C94.4 189.8 96.1 183.1 96.1 176C96.1 149.5 74.6 128 48.1 128C21.6 128 0 149.5 0 176C0 202.5 21.5 224 48 224C50.6 224 53.2 223.6 55.7 223.2L128 416H512L584.3 223.2C586.8 223.6 589.4 224 592 224C618.5 224 640 202.5 640 176C640 149.5 618.5 128 592 128Z" fill="white"/>
</g>
<path d="M54.392 533.96C60.344 533.96 65.592 534.952 70.136 536.936C74.744 538.92 78.296 541.704 80.792 545.288C83.352 548.808 84.632 552.904 84.632 557.576V557.96C84.632 565.768 82.296 571.72 77.624 575.816C72.952 579.912 66.104 581.96 57.08 581.96H20.408V605H4.18396V533.96H54.392ZM52.568 569.288C56.216 569.288 59.128 569.128 61.304 568.808C63.544 568.424 65.432 567.432 66.968 565.832C68.504 564.168 69.272 561.608 69.272 558.152C69.272 554.504 68.504 551.848 66.968 550.184C65.432 548.456 63.544 547.4 61.304 547.016C59.128 546.632 56.216 546.44 52.568 546.44H48.824C47.16 546.44 44.28 546.472 40.184 546.536C36.088 546.536 29.496 546.536 20.408 546.536V569.288H52.568Z" fill="white"/>
<path d="M109.283 533.96V591.656H158.051V605H93.059V533.96H109.283Z" fill="white"/>
<path d="M256.118 605H239.222L231.062 589.928H186.23L178.07 605H161.174L199.67 533.96H217.622L256.118 605ZM208.694 548.552L193.334 576.776H223.958L208.694 548.552Z" fill="white"/>
<path d="M239.463 547.496V533.96H319.911L239.463 547.496ZM319.911 533.96V547.784H288.039V605H271.815V547.784H239.463V533.96H319.911Z" fill="white"/>
<path d="M345.064 605H328.84V533.96H345.064V605Z" fill="white"/>
<path d="M371.595 605H355.371V533.96L371.595 605ZM423.147 584.36V533.96H439.371V605H423.147L371.595 554.504V605H355.371V533.96H371.595L423.147 584.36Z" fill="white"/>
<path d="M516.498 533.96H533.106V571.4C533.106 578.376 531.314 584.552 527.73 589.928C524.21 595.304 519.346 599.496 513.138 602.504C506.93 605.512 499.986 607.016 492.306 607.016C484.626 607.016 477.49 605.512 470.898 602.504C464.37 599.496 459.154 595.304 455.25 589.928C451.346 584.488 449.362 578.344 449.298 571.496V533.96H466.002V572.168C466.002 577.352 467.474 581.512 470.418 584.648C473.362 587.784 476.85 590.024 480.882 591.368C484.914 592.648 488.754 593.288 492.402 593.288C495.73 593.288 499.25 592.648 502.962 591.368C506.674 590.024 509.842 587.784 512.466 584.648C515.154 581.512 516.498 577.352 516.498 572.168V533.96Z" fill="white"/>
<path d="M636.471 533.96V605H620.247V560.552L598.551 605H582.327L559.095 559.88V605H542.871V533.96H562.455L590.295 588.68L616.983 533.96H636.471Z" fill="white"/>
</svg>
