<svg width="698" height="620" viewBox="0 0 698 620" fill="none" xmlns="http://www.w3.org/2000/svg">
<mask id="mask0_35308_18199" style="mask-type:luminance" maskUnits="userSpaceOnUse" x="29" y="0" width="640" height="512">
<path d="M669 0H29V512H669V0Z" fill="white"/>
</mask>
<g mask="url(#mask0_35308_18199)">
<path d="M557 448H141C132.2 448 125 455.2 125 464V496C125 504.8 132.2 512 141 512H557C565.8 512 573 504.8 573 496V464C573 455.2 565.8 448 557 448ZM621 128C594.5 128 573 149.5 573 176C573 183.1 574.6 189.7 577.4 195.8L505 239.2C489.6 248.4 469.7 243.2 460.8 227.6L379.3 85C390 76.2 397 63 397 48C397 21.5 375.5 0 349 0C322.5 0 301 21.5 301 48C301 63 308 76.2 318.7 85L237.2 227.6C228.3 243.2 208.3 248.4 193 239.2L120.7 195.8C123.4 189.8 125.1 183.1 125.1 176C125.1 149.5 103.6 128 77.1 128C50.6 128 29 149.5 29 176C29 202.5 50.5 224 77 224C79.6 224 82.2 223.6 84.7 223.2L157 416H541L613.3 223.2C615.8 223.6 618.4 224 621 224C647.5 224 669 202.5 669 176C669 149.5 647.5 128 621 128Z" fill="#FFEA00"/>
</g>
<path d="M55.336 538C61.2923 538 66.5441 539.115 71.0914 541.345C75.7027 543.575 79.2573 546.704 81.7551 550.732C84.3169 554.688 85.5979 559.291 85.5979 564.542V564.974C85.5979 570.656 84.3169 575.547 81.7551 579.647C79.2573 583.747 75.7347 586.84 71.1875 588.926C66.6402 591.012 61.3563 592.055 55.336 592.055H27.3798V617.842H0V538H55.336ZM49.9561 570.908C50.4685 570.908 51.9736 570.908 54.4714 570.908C57.0332 570.908 58.7945 570.44 59.7552 569.505C60.7799 568.498 61.2923 566.988 61.2923 564.974C61.2923 562.96 60.844 561.521 59.9473 560.658C59.1147 559.795 57.9619 559.255 56.4888 559.039C55.0798 558.824 52.9022 558.716 49.9561 558.716H46.978C45.0566 558.788 38.5238 558.824 27.3798 558.824V570.908H49.9561Z" fill="#FFEA00"/>
<path d="M159.803 617.842L140.108 592.055H130.79V617.842H104.851V538H160.187C166.143 538 171.395 539.115 175.942 541.345C180.553 543.575 184.108 546.704 186.606 550.732C189.168 554.688 190.449 559.291 190.449 564.542V564.974C190.449 571.807 188.655 577.454 185.069 581.913C181.546 586.373 176.647 589.358 170.37 590.868L191.025 617.842H159.803ZM165.182 564.974C165.182 562.816 164.734 561.269 163.837 560.334C163.005 559.327 161.852 558.716 160.379 558.5C158.97 558.284 156.792 558.176 153.846 558.176H150.772C148.787 558.248 142.126 558.284 130.79 558.284V571.447H153.846C156.792 571.447 158.97 571.339 160.379 571.124C161.852 570.908 163.005 570.368 163.837 569.505C164.734 568.57 165.182 567.06 165.182 564.974Z" fill="#FFEA00"/>
<path d="M280.011 588.279H237.644V596.587L288.081 596.263V617.842H210.264V538H288.081L288.177 559.579H237.644V567.239H280.011V588.279Z" fill="#FFEA00"/>
<path d="M413.376 538V617.842H385.996V588.603L373.315 617.842H348.817L335.271 588.279V617.842H307.891V538H338.634L361.114 589.682L383.498 538H413.376Z" fill="#FFEA00"/>
<path d="M461.888 617.842H434.508V538H461.888V617.842Z" fill="#FFEA00"/>
<path d="M543.88 538H571.836V578.353C571.836 586.121 569.819 593.206 565.784 599.608C561.813 605.938 556.497 610.937 549.836 614.605C543.175 618.202 535.938 620 528.124 620C519.542 620 511.793 618.202 504.876 614.605C497.959 611.009 492.515 606.082 488.544 599.824C484.637 593.494 482.652 586.409 482.588 578.568V538H511.12V578.245C511.12 583.999 512.657 588.243 515.731 590.976C518.87 593.638 523.033 594.968 528.221 594.968C532.448 594.968 536.098 593.602 539.172 590.868C542.311 588.063 543.88 583.855 543.88 578.245V538Z" fill="#FFEA00"/>
<path d="M698 538V617.842H670.62V588.603L657.939 617.842H633.441L619.896 588.279V617.842H592.516V538H623.258L645.738 589.682L668.122 538H698Z" fill="#FFEA00"/>
</svg>
