<svg width="18" height="18" viewBox="0 0 18 18" fill="none" xmlns="http://www.w3.org/2000/svg">
<path d="M9.74103 17.917C9.27407 17.9167 8.80777 17.8816 8.34603 17.812C6.32387 17.4922 4.4676 16.5028 3.07468 15.0024C1.68176 13.502 0.832847 11.5775 0.663974 9.53715C0.4951 7.49684 1.01605 5.4589 2.14333 3.74992C3.27061 2.04093 4.93896 0.759843 6.88103 0.111951C7.08886 0.0412983 7.3123 0.0301712 7.52612 0.0798265C7.73994 0.129482 7.93561 0.237941 8.09103 0.392951C8.25944 0.557365 8.37896 0.765247 8.43634 0.993502C8.49371 1.22176 8.48668 1.46145 8.41603 1.68595C8.1493 2.55325 8.02998 3.45916 8.06303 4.36595C8.13838 5.7882 8.57993 7.16685 9.34488 8.36823C10.1098 9.56962 11.1722 10.553 12.429 11.2229C13.5611 11.8651 14.8386 12.207 16.14 12.216C16.3667 12.2191 16.5881 12.2842 16.7804 12.4042C16.9727 12.5242 17.1285 12.6945 17.2309 12.8968C17.3333 13.099 17.3784 13.3253 17.3613 13.5514C17.3442 13.7774 17.2656 13.9944 17.134 14.179C16.2827 15.3397 15.1695 16.2833 13.8849 16.9328C12.6003 17.5823 11.1805 17.9195 9.74103 17.917ZM7.26103 1.04995C7.23892 1.05019 7.21699 1.0539 7.19603 1.06095C5.98034 1.46438 4.87705 2.14912 3.97595 3.05944C3.07484 3.96976 2.40137 5.07996 2.01034 6.2997C1.6193 7.51944 1.52174 8.81426 1.72559 10.0788C1.92945 11.3434 2.42896 12.542 3.18349 13.577C3.93802 14.6121 4.92624 15.4544 6.06776 16.0355C7.20928 16.6165 8.47185 16.9198 9.75274 16.9208C11.0336 16.9218 12.2967 16.6203 13.4391 16.041C14.5814 15.4617 15.5709 14.6209 16.327 13.587C16.3508 13.5528 16.3646 13.5128 16.3669 13.4713C16.3692 13.4298 16.3599 13.3885 16.34 13.3519C16.322 13.3122 16.2931 13.2783 16.2566 13.2543C16.2202 13.2302 16.1777 13.2169 16.134 13.216C14.6658 13.2067 13.2242 12.8226 11.946 12.1C10.5379 11.3457 9.34842 10.2405 8.49291 8.89147C7.63741 7.54243 7.14488 5.99529 7.06303 4.39995C7.02751 3.38198 7.16271 2.36526 7.46303 1.39195C7.47833 1.34264 7.47999 1.29011 7.46784 1.23993C7.45569 1.18976 7.43019 1.1438 7.39403 1.10695C7.37687 1.08895 7.35623 1.07462 7.33337 1.06483C7.31051 1.05503 7.2859 1.04997 7.26103 1.04995Z" fill="white"/>
</svg>
