<svg width="896" height="896" viewBox="0 0 896 896" fill="none" xmlns="http://www.w3.org/2000/svg">
<path fill-rule="evenodd" clip-rule="evenodd" d="M484 754V880C484 888.837 476.837 896 468 896H428C419.163 896 412 888.837 412 880V754C427.845 755.643 439.845 756.464 448 756.464C456.155 756.464 468.155 755.643 484 754ZM689.251 638.34L778.347 727.435C784.595 733.683 784.595 743.815 778.347 750.062L750.062 778.347C743.814 784.595 733.683 784.595 727.435 778.347L638.34 689.25C650.705 679.207 659.771 671.303 665.538 665.537C671.304 659.77 679.208 650.704 689.251 638.339M206.749 638.339C216.792 650.704 224.696 659.77 230.462 665.537C236.229 671.303 245.295 679.207 257.66 689.25L168.565 778.346C162.317 784.594 152.185 784.594 145.938 778.346L117.653 750.061C111.405 743.813 111.405 733.682 117.653 727.434L206.749 638.339ZM448 214C577.235 214 682 318.765 682 448C682 577.235 577.235 682 448 682C318.765 682 214 577.235 214 448C214 318.765 318.765 214 448 214ZM448 286C358.53 286 286 358.53 286 448C286 537.47 358.53 610 448 610C537.47 610 610 537.47 610 448C610 358.53 537.47 286 448 286ZM142 412C140.357 427.845 139.536 439.845 139.536 448C139.536 456.155 140.357 468.155 142 484H16C7.163 484 0 476.837 0 468V428C0 419.163 7.163 412 16 412H142ZM880 412C888.837 412 896 419.163 896 428V468C896 476.837 888.837 484 880 484H754C755.643 468.155 756.464 456.155 756.464 448C756.464 439.845 755.643 427.845 754 412H880ZM750.062 116.653L778.347 144.938C784.595 151.186 784.595 161.317 778.347 167.565L689.25 256.66C679.207 244.295 671.303 235.229 665.537 229.462C659.77 223.696 650.704 215.792 638.339 205.749L727.434 116.653C733.682 110.405 743.814 110.405 750.061 116.653M168.564 116.653L257.659 205.749C245.294 215.792 236.228 223.696 230.461 229.462C224.695 235.229 216.791 244.295 206.748 256.66L117.652 167.565C111.404 161.317 111.404 151.185 117.652 144.938L145.937 116.653C152.185 110.405 162.316 110.405 168.564 116.653ZM468 0C476.837 0 484 7.163 484 16V142C468.155 140.357 456.155 139.536 448 139.536C439.845 139.536 427.845 140.357 412 142V16C412 7.163 419.163 0 428 0H468Z" fill="white"/>
</svg>
