<svg width="14" height="15" viewBox="0 0 14 15" fill="none" xmlns="http://www.w3.org/2000/svg">
<path d="M13.5 0.5H0.5V7.5C0.5 8.03043 0.710714 8.53914 1.08579 8.91421C1.46086 9.28929 1.96957 9.5 2.5 9.5H5.5V13C5.5 13.3978 5.65804 13.7794 5.93934 14.0607C6.22064 14.342 6.60218 14.5 7 14.5C7.39782 14.5 7.77936 14.342 8.06066 14.0607C8.34196 13.7794 8.5 13.3978 8.5 13V9.5H11.5C12.0304 9.5 12.5391 9.28929 12.9142 8.91421C13.2893 8.53914 13.5 8.03043 13.5 7.5V0.5Z" stroke="white"/>
<path d="M1 6.5H13M11 1V3M8.5 1V4.5M3 1V2" stroke="white" stroke-linecap="round" stroke-linejoin="round"/>
</svg>
